<svg width="212" height="211" viewBox="0 0 212 211" fill="none" xmlns="http://www.w3.org/2000/svg">
<g opacity="0.2">
<path d="M194.469 151.942C192.821 151.221 191.524 149.877 190.863 148.204C190.202 146.531 190.229 144.664 190.939 143.011C191.292 142.191 191.804 141.45 192.444 140.829C193.085 140.207 193.842 139.719 194.672 139.391C195.501 139.063 196.388 138.902 197.28 138.917C198.172 138.933 199.052 139.124 199.87 139.481C201.512 140.209 202.803 141.553 203.463 143.224C204.124 144.894 204.101 146.758 203.4 148.412L203.012 149.153C202.169 150.575 200.837 151.643 199.266 152.156C197.694 152.669 195.989 152.593 194.469 151.942Z" fill="#FFAA1B"/>
<path d="M172.759 189.079C172.067 189.645 171.27 190.069 170.414 190.326C169.558 190.582 168.659 190.667 167.77 190.576C166.881 190.484 166.019 190.217 165.233 189.79C164.447 189.364 163.754 188.786 163.192 188.091C162.627 187.402 162.204 186.608 161.948 185.754C161.691 184.901 161.607 184.005 161.699 183.119C161.791 182.232 162.057 181.373 162.483 180.59C162.909 179.808 163.486 179.118 164.181 178.559C165.577 177.421 167.368 176.882 169.161 177.061C170.954 177.239 172.603 178.121 173.747 179.512C174.617 180.589 175.14 181.905 175.247 183.285C175.354 184.665 175.041 186.045 174.348 187.243C173.939 187.95 173.4 188.573 172.759 189.079Z" fill="#010101"/>
<path d="M205.413 105.414C203.616 105.551 201.838 104.97 200.469 103.799C199.099 102.628 198.25 100.962 198.105 99.1659C198.028 98.2771 198.128 97.3819 198.399 96.532C198.671 95.6821 199.108 94.8944 199.686 94.2147C200.264 93.535 200.971 92.9768 201.766 92.5724C202.561 92.1679 203.429 91.9254 204.318 91.8586C206.115 91.712 207.897 92.2836 209.273 93.4481C210.65 94.6127 211.508 96.2752 211.661 98.0716C211.766 99.4523 211.446 100.832 210.743 102.025C210.201 102.985 209.432 103.796 208.502 104.387C207.572 104.978 206.511 105.331 205.413 105.414Z" fill="#010101"/>
<path d="M126.691 210.86C125.817 211.04 124.916 211.046 124.04 210.878C123.163 210.709 122.329 210.369 121.584 209.877C120.84 209.385 120.2 208.751 119.701 208.011C119.202 207.271 118.854 206.44 118.677 205.565C118.323 203.801 118.681 201.968 119.673 200.466C120.665 198.965 122.211 197.917 123.973 197.552C125.742 197.187 127.584 197.539 129.094 198.532C130.603 199.525 131.656 201.077 132.021 202.847C132.363 204.477 132.086 206.175 131.245 207.612C130.762 208.448 130.106 209.17 129.32 209.731C128.535 210.291 127.638 210.676 126.691 210.86Z" fill="#010101"/>
<path d="M193.481 59.0992C192.724 59.5789 191.88 59.9038 190.997 60.0552C190.114 60.2066 189.21 60.1814 188.337 59.9812C187.464 59.7809 186.639 59.4096 185.91 58.8886C185.181 58.3676 184.563 57.7072 184.091 56.9458C183.617 56.1905 183.296 55.3491 183.148 54.4698C182.999 53.5904 183.026 52.6905 183.226 51.8214C183.426 50.9524 183.796 50.1314 184.314 49.4054C184.832 48.6795 185.488 48.0628 186.244 47.5909C186.997 47.1152 187.837 46.7925 188.715 46.6415C189.593 46.4904 190.492 46.5139 191.361 46.7106C192.23 46.9074 193.051 47.2735 193.778 47.788C194.506 48.3024 195.124 48.9552 195.599 49.709C196.248 50.7722 196.591 51.9937 196.591 53.2392C196.591 54.4846 196.248 55.7061 195.599 56.7693C195.086 57.7014 194.36 58.4996 193.481 59.0992Z" fill="#010101"/>
<path d="M75.786 208.813C74.0555 208.305 72.5968 207.131 71.7299 205.55C70.8631 203.968 70.6587 202.108 71.1616 200.376C71.6775 198.65 72.8521 197.198 74.4312 196.332C76.0103 195.467 77.8667 195.258 79.5985 195.751C81.3238 196.267 82.7764 197.442 83.6419 199.021C84.5074 200.6 84.7162 202.456 84.223 204.188C84.0575 204.718 83.8326 205.227 83.5524 205.706C82.7919 207.018 81.6134 208.037 80.2055 208.6C78.7975 209.163 77.2415 209.238 75.786 208.813Z" fill="#FFAA1B"/>
<path d="M152.108 26.1277C151.328 25.6882 150.643 25.098 150.094 24.3912C149.545 23.6844 149.142 22.8752 148.908 22.0109C148.675 21.1467 148.616 20.2447 148.735 19.3575C148.854 18.4703 149.149 17.6157 149.601 16.8435C150.496 15.2851 151.973 14.1456 153.707 13.6756C155.441 13.2056 157.291 13.4434 158.85 14.337H159.062C160.617 15.2442 161.75 16.7299 162.213 18.4695C162.676 20.2091 162.431 22.0612 161.533 23.6213C161.091 24.4167 160.492 25.1147 159.774 25.6738C159.056 26.2329 158.232 26.6416 157.353 26.8756C156.473 27.1095 155.555 27.1638 154.654 27.0353C153.753 26.9068 152.887 26.5981 152.108 26.1277Z" fill="#FFAA1B"/>
<path d="M41.2617 183.113C40.6461 183.759 39.909 184.277 39.0927 184.637C38.2763 184.998 37.3969 185.193 36.5047 185.213C35.6126 185.233 34.7254 185.076 33.894 184.752C33.0626 184.428 32.3033 183.943 31.6597 183.325C30.3636 182.077 29.6139 180.366 29.5742 178.567C29.5345 176.769 30.2081 175.027 31.4479 173.723C32.7022 172.425 34.4183 171.674 36.223 171.634C38.0278 171.595 39.7752 172.269 41.0853 173.511C42.1839 174.569 42.8957 175.965 43.1069 177.475C43.3182 178.986 43.0165 180.524 42.2502 181.842C41.9951 182.319 41.6609 182.748 41.2617 183.113Z" fill="#010101"/>
<path d="M109.075 13.631C108.182 13.5992 107.304 13.391 106.491 13.0184C105.679 12.6457 104.948 12.1162 104.341 11.4599C103.734 10.8037 103.262 10.0339 102.954 9.19476C102.646 8.35567 102.507 7.46388 102.545 6.57075C102.618 4.76961 103.402 3.07102 104.726 1.84695C106.049 0.622883 107.803 -0.0269052 109.605 0.0399737C110.5 0.071842 111.38 0.27982 112.194 0.651995C113.008 1.02417 113.742 1.5532 114.351 2.20893C114.961 2.86466 115.436 3.63426 115.748 4.47355C116.06 5.31283 116.204 6.20539 116.171 7.10025C116.131 8.20749 115.815 9.2872 115.253 10.242C114.633 11.319 113.729 12.2047 112.639 12.8024C111.55 13.4 110.317 13.6868 109.075 13.631Z" fill="#FFAA1B"/>
<path d="M13.2324 144.564C11.5189 145.125 9.65342 144.987 8.04086 144.18C6.4283 143.374 5.19868 141.965 4.61888 140.257C4.04876 138.544 4.18215 136.674 4.98969 135.059C5.79724 133.444 7.21289 132.216 8.92566 131.644C10.6392 131.083 12.5047 131.221 14.1172 132.028C15.7298 132.834 16.9594 134.244 17.5392 135.951C17.8408 136.87 17.9434 137.842 17.8399 138.804C17.7364 139.766 17.4293 140.694 16.939 141.528C16.0951 142.941 14.7841 144.015 13.2324 144.564Z" fill="#010101"/>
<path d="M65.5134 22.5976C63.884 23.3725 62.0137 23.4696 60.3129 22.8673C58.6121 22.2651 57.2196 21.0129 56.4409 19.3852C55.678 17.7501 55.5912 15.88 56.1993 14.1812C56.8074 12.4824 58.0614 11.0922 59.6887 10.3127C61.3195 9.54733 63.1862 9.45526 64.8844 10.0566C66.5826 10.6579 67.9754 11.9041 68.7612 13.5252C69.2316 14.5282 69.4516 15.6303 69.4024 16.7371C69.3532 17.8438 69.0362 18.9221 68.4787 19.8794C67.7748 21.0538 66.7445 21.9982 65.5134 22.5976Z" fill="#010101"/>
<path d="M5.92476 97.26C5.04291 97.1186 4.19775 96.8041 3.43779 96.3349C2.67782 95.8657 2.01807 95.251 1.49647 94.526C0.97487 93.801 0.601657 92.9801 0.398365 92.1105C0.195073 91.2408 0.165683 90.3394 0.311857 89.4583C0.453321 88.5765 0.767655 87.7313 1.23684 86.9714C1.70602 86.2114 2.32076 85.5516 3.04575 85.03C3.77075 84.5084 4.59173 84.1352 5.46141 83.9319C6.3311 83.7286 7.23235 83.6993 8.11343 83.8454C9.88736 84.1315 11.4751 85.1103 12.5276 86.5666C13.5801 88.0229 14.0114 89.8377 13.7264 91.6118C13.5998 92.4476 13.312 93.2508 12.8791 93.9769C12.1854 95.1608 11.1503 96.1077 9.90942 96.6935C8.66855 97.2793 7.27973 97.4768 5.92476 97.26Z" fill="#010101"/>
<path d="M31.1301 50.7326C30.0482 52.1783 28.4365 53.1354 26.6493 53.3935C24.8621 53.6517 23.0455 53.1898 21.5987 52.1094C20.8782 51.5679 20.2723 50.8889 19.8161 50.1116C19.3598 49.3343 19.0623 48.4742 18.9408 47.5811C18.8194 46.688 18.8762 45.7798 19.1083 44.9088C19.3403 44.0379 19.7429 43.2217 20.2926 42.5074C20.8277 41.7954 21.4979 41.1959 22.2649 40.7431C23.0319 40.2903 23.8806 39.9931 24.7625 39.8685C25.6445 39.7439 26.5423 39.7944 27.4048 40.017C28.2672 40.2396 29.0772 40.63 29.7886 41.1659C31.1234 42.1561 32.0478 43.6021 32.3863 45.2292C32.7247 46.8563 32.4535 48.551 31.6243 49.9913C31.4478 50.309 31.2713 50.5208 31.1301 50.7326Z" fill="#FFAA1B"/>
<path d="M178.302 143.681C176.946 143.099 175.876 142.002 175.327 140.633C174.778 139.263 174.794 137.732 175.371 136.374C175.954 135.018 177.05 133.949 178.42 133.4C179.79 132.85 181.321 132.866 182.679 133.444C184.028 134.034 185.092 135.131 185.64 136.498C186.188 137.865 186.177 139.392 185.609 140.751C185.524 140.962 185.418 141.163 185.291 141.351C184.614 142.529 183.528 143.416 182.24 143.846C180.951 144.275 179.55 144.217 178.302 143.681Z" fill="#010101"/>
<path d="M160.509 174.076C159.946 174.54 159.296 174.887 158.597 175.098C157.898 175.308 157.165 175.378 156.439 175.302C155.713 175.227 155.009 175.008 154.368 174.658C153.728 174.308 153.164 173.834 152.708 173.264C152.244 172.701 151.896 172.051 151.686 171.352C151.475 170.653 151.406 169.919 151.482 169.193C151.557 168.467 151.776 167.764 152.126 167.123C152.476 166.483 152.95 165.918 153.52 165.462C154.083 165.001 154.731 164.655 155.428 164.444C156.125 164.234 156.857 164.162 157.581 164.234C158.306 164.306 159.009 164.521 159.651 164.865C160.292 165.208 160.86 165.676 161.321 166.239C162.04 167.115 162.472 168.191 162.561 169.321C162.649 170.451 162.389 171.58 161.815 172.558C161.491 173.149 161.046 173.667 160.509 174.076Z" fill="#010101"/>
<path d="M187.268 105.626C185.795 105.734 184.34 105.257 183.217 104.299C182.093 103.341 181.393 101.979 181.267 100.508C181.149 99.0386 181.618 97.5829 182.571 96.4585C183.523 95.334 184.882 94.6323 186.35 94.5064C187.825 94.3894 189.285 94.8629 190.411 95.8229C191.536 96.7828 192.234 98.1504 192.351 99.625C192.421 100.745 192.163 101.861 191.61 102.837C191.164 103.618 190.537 104.279 189.781 104.764C189.025 105.25 188.163 105.546 187.268 105.626Z" fill="#010101"/>
<path d="M122.843 191.903C121.397 192.195 119.894 191.902 118.663 191.088C117.433 190.274 116.575 189.006 116.277 187.561C115.995 186.116 116.292 184.618 117.104 183.389C117.916 182.161 119.179 181.301 120.619 180.995C122.064 180.713 123.563 181.01 124.791 181.822C126.019 182.634 126.879 183.897 127.185 185.337C127.461 186.677 127.235 188.072 126.55 189.256C126.148 189.929 125.611 190.511 124.973 190.967C124.335 191.423 123.61 191.741 122.843 191.903Z" fill="#010101"/>
<path d="M177.49 67.7126C176.869 68.1027 176.177 68.3665 175.454 68.4889C174.731 68.6113 173.991 68.5899 173.276 68.426C172.561 68.262 171.885 67.9587 171.288 67.5334C170.691 67.1081 170.183 66.5692 169.794 65.9475C169.017 64.6963 168.767 63.1885 169.098 61.7534C169.428 60.3183 170.313 59.0722 171.559 58.2871C172.81 57.5103 174.318 57.26 175.753 57.5907C177.188 57.9213 178.434 58.8062 179.219 60.0521C179.739 60.922 180.013 61.9161 180.013 62.9292C180.013 63.9422 179.739 64.9364 179.219 65.8063C178.81 66.5751 178.215 67.2302 177.49 67.7126Z" fill="#FFAA1B"/>
<path d="M81.1873 190.209C80.484 190.01 79.8272 189.673 79.2554 189.218C78.6835 188.763 78.2079 188.199 77.8564 187.558C77.5048 186.918 77.2842 186.213 77.2076 185.486C77.131 184.76 77.1998 184.025 77.41 183.325C77.6091 182.621 77.9456 181.963 78.4001 181.39C78.8545 180.817 79.418 180.339 80.058 179.985C80.6979 179.631 81.4016 179.406 82.1287 179.325C82.8557 179.244 83.5915 179.308 84.2938 179.512C85.0117 179.718 85.6811 180.066 86.2621 180.535C86.8431 181.004 87.324 181.585 87.6763 182.243C88.0285 182.902 88.245 183.624 88.3129 184.368C88.3807 185.112 88.2985 185.861 88.0711 186.573C87.9378 187.002 87.7603 187.416 87.5415 187.808C86.8987 188.857 85.9256 189.661 84.7753 190.096C83.6249 190.531 82.3627 190.57 81.1873 190.209Z" fill="#010101"/>
<path d="M143.6 40.7424H143.424C142.149 40.0039 141.219 38.7915 140.835 37.3696C140.452 35.9477 140.646 34.4318 141.376 33.1527C141.738 32.5183 142.223 31.9617 142.801 31.5152C143.379 31.0686 144.04 30.7407 144.745 30.5504C145.451 30.3601 146.187 30.3112 146.911 30.4064C147.635 30.5016 148.334 30.739 148.966 31.1051H149.142C149.774 31.4704 150.327 31.9568 150.77 32.5363C151.213 33.1159 151.537 33.7772 151.724 34.4823C151.911 35.1874 151.957 35.9225 151.859 36.6454C151.762 37.3683 151.522 38.0649 151.155 38.695C150.423 39.9667 149.217 40.8964 147.801 41.2802C146.384 41.6641 144.874 41.4706 143.6 40.7424Z" fill="#010101"/>
<path d="M52.9463 169.204C52.431 169.724 51.8179 170.137 51.1423 170.418C50.4667 170.7 49.7421 170.845 49.0102 170.845C48.2783 170.845 47.5536 170.7 46.878 170.418C46.2024 170.137 45.5893 169.724 45.074 169.204C44.0328 168.159 43.4482 166.744 43.4482 165.268C43.4482 163.793 44.0328 162.377 45.074 161.332C46.1194 160.291 47.5348 159.706 49.0102 159.706C50.4856 159.706 51.9009 160.291 52.9463 161.332C53.8385 162.201 54.4164 163.342 54.5889 164.576C54.7615 165.809 54.5189 167.065 53.8994 168.145C53.6152 168.527 53.2962 168.882 52.9463 169.204Z" fill="#010101"/>
<path d="M108.546 30.5403C107.072 30.476 105.684 29.831 104.685 28.746C103.687 27.661 103.158 26.2246 103.215 24.7509C103.271 23.2776 103.907 21.886 104.985 20.8805C106.063 19.875 107.496 19.3374 108.969 19.3851C109.702 19.4124 110.422 19.5838 111.089 19.8896C111.755 20.1955 112.354 20.6296 112.853 21.1673C113.351 21.705 113.738 22.3357 113.993 23.0233C114.247 23.7109 114.364 24.4419 114.335 25.1745C114.295 26.0799 114.041 26.9629 113.594 27.7515C113.081 28.627 112.341 29.348 111.453 29.8387C110.564 30.3295 109.56 30.5718 108.546 30.5403Z" fill="#010101"/>
<path d="M29.8239 137.822C29.129 138.064 28.3927 138.164 27.6584 138.117C26.924 138.07 26.2066 137.876 25.5484 137.547C24.8903 137.218 24.3048 136.76 23.8265 136.201C23.3482 135.642 22.9867 134.993 22.7636 134.291C22.5214 133.597 22.4208 132.86 22.468 132.126C22.5151 131.392 22.709 130.674 23.0381 130.016C23.3672 129.358 23.8248 128.772 24.384 128.294C24.9431 127.816 25.5925 127.454 26.2937 127.231C26.9891 126.999 27.7234 126.906 28.4547 126.957C29.186 127.009 29.8999 127.205 30.5557 127.532C31.2114 127.86 31.7961 128.314 32.2763 128.868C32.7564 129.422 33.1227 130.066 33.354 130.761C33.5929 131.519 33.6722 132.318 33.5871 133.108C33.5021 133.897 33.2544 134.661 32.8597 135.35C32.1723 136.508 31.0965 137.383 29.8239 137.822Z" fill="#FFAA1B"/>
<path d="M72.7856 37.8477C72.1255 38.1639 71.4095 38.3462 70.6786 38.3841C69.9477 38.422 69.2165 38.3148 68.5273 38.0687C67.8381 37.8225 67.2044 37.4423 66.6629 36.95C66.1214 36.4576 65.6827 35.8629 65.3723 35.2001C65.0568 34.5427 64.8751 33.8291 64.8376 33.1009C64.8001 32.3726 64.9077 31.6441 65.154 30.9578C65.4003 30.2714 65.7805 29.6408 66.2725 29.1025C66.7644 28.5643 67.3584 28.129 68.0199 27.8221C69.3502 27.1909 70.8762 27.1113 72.2649 27.6006C73.6537 28.09 74.7925 29.1086 75.4332 30.4344C75.8185 31.2525 76.0005 32.1516 75.9637 33.0551C75.9268 33.9586 75.6721 34.8398 75.2214 35.6237C74.6557 36.5965 73.8057 37.3727 72.7856 37.8477Z" fill="#010101"/>
<path d="M24.0342 98.9895C22.578 98.7467 21.276 97.9399 20.4104 96.744C19.5448 95.548 19.1853 94.0592 19.4097 92.6C19.5254 91.8779 19.7828 91.1859 20.1672 90.5637C20.5515 89.9416 21.0552 89.4017 21.6491 88.9751C22.2431 88.5486 22.9155 88.2438 23.6278 88.0783C24.3401 87.9128 25.0781 87.8898 25.7993 88.0108C27.2526 88.2453 28.5544 89.0449 29.4206 90.2352C30.2869 91.4255 30.6475 92.91 30.4237 94.365C30.2905 95.0337 30.0522 95.6772 29.7178 96.2714C29.1584 97.2479 28.315 98.0309 27.2997 98.5165C26.2845 99.002 25.1455 99.167 24.0342 98.9895Z" fill="#010101"/>
<path d="M44.6503 60.8641C43.765 62.0477 42.4461 62.8314 40.9833 63.0432C39.5205 63.255 38.0334 62.8775 36.8487 61.9937C36.2615 61.5557 35.767 61.0056 35.3937 60.3753C35.0205 59.7449 34.7758 59.0467 34.6741 58.3213C34.5723 57.5958 34.6155 56.8573 34.8009 56.1485C34.9863 55.4398 35.3104 54.7748 35.7544 54.1921C36.6443 53.0242 37.9588 52.2543 39.4127 52.0495C40.8667 51.8446 42.3427 52.2212 43.5206 53.0978C44.6142 53.9108 45.37 55.0982 45.6435 56.4332C45.917 57.7681 45.6891 59.157 45.0034 60.3345C44.9065 60.5241 44.7881 60.7019 44.6503 60.8641Z" fill="#010101"/>
<path d="M164.463 136.621C163.92 136.39 163.428 136.054 163.015 135.633C162.602 135.211 162.276 134.712 162.057 134.164C161.837 133.617 161.727 133.031 161.734 132.441C161.742 131.851 161.865 131.268 162.098 130.726C162.329 130.178 162.666 129.682 163.09 129.264C163.513 128.847 164.015 128.518 164.565 128.295C165.116 128.072 165.706 127.96 166.3 127.965C166.894 127.97 167.482 128.093 168.029 128.325C169.122 128.806 169.982 129.697 170.425 130.806C170.867 131.916 170.856 133.154 170.394 134.256C170.394 134.432 170.394 134.609 170.147 134.75C169.591 135.701 168.706 136.416 167.659 136.761C166.612 137.106 165.476 137.056 164.463 136.621Z" fill="#010101"/>
<path d="M150.06 161.262C149.602 161.634 149.074 161.912 148.508 162.079C147.942 162.247 147.349 162.301 146.761 162.239C146.174 162.177 145.605 161.999 145.087 161.716C144.569 161.433 144.111 161.051 143.741 160.591C143.363 160.137 143.078 159.611 142.905 159.046C142.732 158.481 142.673 157.886 142.732 157.298C142.792 156.71 142.968 156.139 143.25 155.619C143.532 155.1 143.915 154.642 144.377 154.272C145.304 153.514 146.494 153.156 147.685 153.275C148.877 153.394 149.972 153.981 150.731 154.907C151.303 155.623 151.646 156.494 151.715 157.407C151.784 158.32 151.577 159.233 151.119 160.026C150.857 160.508 150.497 160.929 150.06 161.262Z" fill="#010101"/>
<path d="M171.735 105.768C170.542 105.865 169.358 105.485 168.445 104.711C167.531 103.936 166.963 102.831 166.864 101.637C166.776 100.45 167.161 99.2753 167.934 98.3697C168.707 97.464 169.807 96.9003 170.994 96.8012C172.188 96.7035 173.371 97.0837 174.285 97.8581C175.198 98.6326 175.767 99.7379 175.866 100.931C175.928 101.847 175.706 102.759 175.23 103.544C174.877 104.174 174.372 104.707 173.763 105.095C173.153 105.483 172.456 105.714 171.735 105.768Z" fill="#010101"/>
<path d="M119.524 175.7C118.945 175.818 118.348 175.82 117.767 175.707C117.186 175.593 116.634 175.365 116.142 175.037C115.65 174.709 115.227 174.287 114.899 173.795C114.571 173.303 114.343 172.75 114.229 172.17C114.111 171.59 114.109 170.993 114.223 170.412C114.336 169.832 114.564 169.279 114.892 168.787C115.22 168.295 115.642 167.872 116.134 167.544C116.627 167.216 117.179 166.988 117.759 166.875C118.342 166.751 118.943 166.745 119.527 166.856C120.112 166.967 120.668 167.194 121.165 167.522C121.661 167.851 122.086 168.275 122.417 168.77C122.748 169.265 122.976 169.821 123.09 170.405C123.314 171.481 123.125 172.603 122.56 173.546C122.242 174.105 121.805 174.587 121.281 174.959C120.756 175.331 120.157 175.584 119.524 175.7Z" fill="#FFAA1B"/>
<path d="M163.792 75.0908C163.29 75.4074 162.731 75.6211 162.145 75.7197C161.56 75.8183 160.961 75.7997 160.383 75.6651C159.806 75.5305 159.26 75.2825 158.779 74.9354C158.297 74.5884 157.89 74.1492 157.579 73.6434C157.268 73.1429 157.059 72.5859 156.963 72.0044C156.868 71.4229 156.888 70.8282 157.022 70.2544C157.157 69.6806 157.403 69.139 157.747 68.6605C158.091 68.182 158.526 67.776 159.027 67.4657C159.522 67.1468 160.075 66.9294 160.655 66.826C161.234 66.7226 161.828 66.7353 162.403 66.8633C162.978 66.9914 163.521 67.2323 164.002 67.572C164.483 67.9117 164.892 68.3435 165.204 68.8424C165.638 69.5485 165.868 70.3611 165.868 71.1899C165.868 72.0188 165.638 72.8314 165.204 73.5375C164.851 74.1511 164.37 74.6809 163.792 75.0908Z" fill="#010101"/>
<path d="M85.7765 174.323C85.2072 174.161 84.6758 173.887 84.2128 173.518C83.7498 173.15 83.3643 172.693 83.0788 172.174C82.7933 171.656 82.6133 171.086 82.5492 170.497C82.4851 169.909 82.5381 169.313 82.7053 168.746C82.8715 168.175 83.1487 167.643 83.5209 167.179C83.8932 166.716 84.3532 166.331 84.8746 166.045C85.396 165.76 85.9686 165.58 86.5595 165.517C87.1504 165.453 87.748 165.507 88.3182 165.674C88.8843 165.84 89.4121 166.117 89.8713 166.487C90.3304 166.857 90.7119 167.315 90.9939 167.833C91.276 168.351 91.453 168.92 91.5148 169.507C91.5766 170.093 91.522 170.686 91.3542 171.252C91.2522 171.592 91.1223 171.922 90.9658 172.24C90.4601 173.12 89.6734 173.803 88.7321 174.181C87.7908 174.559 86.7497 174.609 85.7765 174.323Z" fill="#010101"/>
<path d="M136.363 53.0981C135.849 52.8057 135.398 52.4136 135.037 51.9448C134.676 51.476 134.412 50.94 134.261 50.368C134.11 49.796 134.074 49.1995 134.156 48.6136C134.238 48.0276 134.437 47.4641 134.739 46.9557C135.032 46.4419 135.424 45.9911 135.892 45.6293C136.359 45.2675 136.894 45.0018 137.465 44.8476C138.036 44.6934 138.632 44.6537 139.218 44.7307C139.805 44.8078 140.37 45 140.882 45.2965C141.393 45.5923 141.84 45.9861 142.198 46.4553C142.557 46.9244 142.819 47.4597 142.97 48.0304C143.12 48.6011 143.157 49.196 143.077 49.7809C142.998 50.3659 142.803 50.9293 142.506 51.4389C141.901 52.4626 140.92 53.2092 139.772 53.5192C138.624 53.8292 137.401 53.6781 136.363 53.0981Z" fill="#FFAA1B"/>
<path d="M62.9011 157.307C62.4846 157.726 61.9894 158.058 61.4442 158.284C60.899 158.511 60.3144 158.628 59.724 158.628C59.1336 158.628 58.549 158.511 58.0038 158.284C57.4586 158.058 56.9634 157.726 56.5468 157.307C55.7104 156.461 55.2413 155.32 55.2413 154.13C55.2413 152.941 55.7104 151.799 56.5468 150.953C57.3942 150.106 58.5434 149.63 59.7416 149.63C60.9398 149.63 62.089 150.106 62.9364 150.953C63.6642 151.659 64.1359 152.587 64.2765 153.591C64.4172 154.595 64.2189 155.617 63.713 156.496C63.4766 156.798 63.204 157.071 62.9011 157.307Z" fill="#FFAA1B"/>
<path d="M107.875 44.9436C107.283 44.9254 106.701 44.7901 106.162 44.5455C105.622 44.301 105.137 43.952 104.733 43.5188C104.329 43.0855 104.015 42.5765 103.809 42.0213C103.603 41.466 103.51 40.8755 103.533 40.2838C103.551 39.6919 103.687 39.1095 103.931 38.5701C104.176 38.0308 104.525 37.5452 104.958 37.1415C105.391 36.7378 105.9 36.4238 106.455 36.2179C107.011 36.012 107.601 35.9182 108.193 35.9418C108.785 35.96 109.367 36.0952 109.907 36.3398C110.446 36.5843 110.932 36.9333 111.335 37.3665C111.739 37.7998 112.053 38.3088 112.259 38.864C112.465 39.4193 112.559 40.0098 112.535 40.6015C112.52 41.3474 112.314 42.0768 111.935 42.7196C111.524 43.4245 110.93 44.0042 110.214 44.3961C109.499 44.788 108.69 44.9773 107.875 44.9436Z" fill="#010101"/>
<path d="M44.1913 131.714C43.6327 131.902 43.0425 131.979 42.4543 131.939C41.8662 131.899 41.2917 131.743 40.7638 131.481C40.2359 131.218 39.765 130.855 39.3779 130.41C38.9907 129.966 38.6951 129.449 38.5078 128.89C38.3098 128.327 38.227 127.731 38.2643 127.135C38.3017 126.54 38.4584 125.958 38.7252 125.424C38.992 124.891 39.3634 124.416 39.8173 124.029C40.2712 123.642 40.7982 123.35 41.3672 123.171C42.5002 122.802 43.733 122.896 44.7975 123.431C45.8619 123.967 46.6718 124.901 47.0507 126.031C47.234 126.614 47.2942 127.229 47.2274 127.836C47.1605 128.444 46.9682 129.031 46.6624 129.561C46.1458 130.569 45.2609 131.34 44.1913 131.714Z" fill="#010101"/>
<path d="M78.9988 50.9093C77.9105 51.4088 76.6701 51.4633 75.5423 51.061C74.4145 50.6586 73.4886 49.8314 72.9623 48.7558C72.4548 47.6741 72.3963 46.4354 72.7999 45.3107C73.2035 44.186 74.0361 43.267 75.1156 42.7547C75.6483 42.4974 76.2267 42.3481 76.8174 42.3154C77.4081 42.2828 77.9993 42.3673 78.5572 42.5642C79.115 42.7611 79.6285 43.0665 80.0678 43.4627C80.5071 43.8589 80.8636 44.3381 81.1169 44.8728C81.457 45.5207 81.6347 46.2415 81.6347 46.9732C81.6347 47.705 81.457 48.4256 81.1169 49.0735C80.6125 49.8853 79.874 50.5254 78.9988 50.9093Z" fill="#010101"/>
<path d="M39.4608 100.402C38.2866 100.195 37.2407 99.5349 36.5476 98.5646C35.8545 97.5943 35.5697 96.3908 35.7542 95.2128C35.9452 94.0349 36.5942 92.9804 37.5598 92.2793C38.5254 91.5783 39.7291 91.2876 40.9082 91.4708C41.495 91.5652 42.0573 91.7744 42.5631 92.0864C43.0689 92.3984 43.5082 92.8072 43.8557 93.2892C44.2033 93.7712 44.4524 94.3172 44.5887 94.8956C44.7251 95.474 44.7459 96.0736 44.6502 96.6601C44.5685 97.2106 44.3763 97.739 44.0853 98.2134C43.6224 98.9994 42.9341 99.6283 42.1095 100.019C41.285 100.409 40.3622 100.542 39.4608 100.402Z" fill="#010101"/>
<path d="M56.194 69.5485C55.472 70.5018 54.4014 71.1301 53.2169 71.2955C52.0324 71.461 50.8307 71.1501 49.8751 70.431C49.4003 70.0796 49.0002 69.6371 48.6982 69.1295C48.3962 68.6218 48.1984 68.0591 48.1162 67.4742C48.0341 66.8893 48.0692 66.2938 48.2197 65.7226C48.3701 65.1514 48.6329 64.6159 48.9925 64.1473C49.3443 63.6737 49.786 63.2741 50.2924 62.9716C50.7989 62.669 51.3601 62.4694 51.9438 62.3841C52.5276 62.2988 53.1224 62.3296 53.6942 62.4747C54.2661 62.6198 54.8037 62.8762 55.2762 63.2295C56.1625 63.8872 56.775 64.8488 56.9964 65.9301C57.2179 67.0113 57.0327 68.1363 56.4764 69.0895C56.3953 69.2501 56.3009 69.4037 56.194 69.5485Z" fill="#010101"/>
</g>
</svg>
